<svg width="25" height="32" viewBox="0 0 25 32" fill="none" xmlns="http://www.w3.org/2000/svg">
<path fill-rule="evenodd" clip-rule="evenodd" d="M16.2188 22.8964H19.1422L23.0661 17.3636C23.9098 15.6763 24.3218 13.8516 24.3218 12.0074C24.3218 5.35622 19.0048 0 12.491 0C8.33162 0 4.58422 2.09933 2.44566 5.70938C0.307091 9.24096 0.0912716 13.6162 1.8963 17.3636L8.64553 26.8988V18.4623C6.15381 17.1085 4.48612 14.401 4.48612 11.5169C4.48612 7.27897 8.05694 3.70815 12.4322 3.70815C16.7878 3.70815 20.3782 7.27897 20.3782 11.5169C20.3782 14.3814 18.7105 17.1085 16.2188 18.4623V22.8964ZM15.9049 11.8896C15.9049 13.5181 14.3745 14.8522 12.4714 14.8522C10.5683 14.8522 9.03793 13.5181 9.03793 11.8896H15.9049ZM12.4322 5.94482C9.29298 5.94482 6.76202 8.53465 6.76202 11.5169C6.76202 14.0086 8.50819 16.363 10.9214 17.0104V30.5678C10.9214 31.3525 11.6081 32 12.4322 32C13.2758 32 13.9429 31.3525 13.9429 30.5678H19.1029V28.9197H16.9447V26.7615H19.1029V25.1134H13.9429V16.9908C16.3365 16.363 18.1023 14.0086 18.1023 11.5169C18.1023 8.53465 15.5713 5.94482 12.4322 5.94482Z" fill="#4687B8"/>
</svg>
