<svg width="115" height="40" viewBox="0 0 115 40" fill="none" xmlns="http://www.w3.org/2000/svg">
<path d="M19.6555 25.5417H17.3443V21.9786C19.3142 20.8907 20.6327 18.6993 20.6327 16.3974C20.6327 12.992 17.7941 10.1226 14.3506 10.1226C10.8917 10.1226 8.06863 12.992 8.06863 16.3974C8.06863 18.715 9.38708 20.8907 11.357 21.9786V28.758L6.02116 21.0957C4.59414 18.0844 4.76476 14.5686 6.45547 11.7307C8.14619 8.82978 11.1088 7.14282 14.3972 7.14282C19.5469 7.14282 23.7504 11.4469 23.7504 16.7916C23.7504 18.2736 23.4247 19.7398 22.7577 21.0957L19.6555 25.5417Z" fill="white"/>
<mask id="mask0_4556_590" style="mask-type:luminance" maskUnits="userSpaceOnUse" x="5" y="7" width="19" height="22">
<path d="M19.6555 25.5417H17.3443V21.9786C19.3142 20.8907 20.6327 18.6993 20.6327 16.3974C20.6327 12.992 17.7941 10.1226 14.3506 10.1226C10.8917 10.1226 8.06863 12.992 8.06863 16.3974C8.06863 18.715 9.38708 20.8907 11.357 21.9786V28.758L6.02116 21.0957C4.59414 18.0844 4.76476 14.5686 6.45547 11.7307C8.14619 8.82978 11.1088 7.14282 14.3972 7.14282C19.5469 7.14282 23.7504 11.4469 23.7504 16.7916C23.7504 18.2736 23.4247 19.7398 22.7577 21.0957L19.6555 25.5417Z" fill="white"/>
</mask>
<g mask="url(#mask0_4556_590)">
<path d="M134.95 -14.1727H-18.4244V53.7786H134.95V-14.1727Z" fill="white"/>
</g>
<path d="M14.3817 19.0777C15.8863 19.0777 17.0961 18.0056 17.0961 16.697H11.6672C11.6672 18.0056 12.8771 19.0777 14.3817 19.0777ZM9.86793 16.3975C9.86793 14.001 11.8689 11.9199 14.3506 11.9199C16.8324 11.9199 18.8334 14.001 18.8334 16.3975C18.8334 18.3997 17.4374 20.2916 15.545 20.7962V27.3233H19.6244V28.6476H17.9182V30.3819H19.6244V31.7062H15.545C15.545 32.3368 15.0176 32.8571 14.3506 32.8571C13.6992 32.8571 13.1563 32.3368 13.1563 31.7062V20.8119C11.2484 20.2916 9.86793 18.3997 9.86793 16.3975Z" fill="white"/>
<mask id="mask1_4556_590" style="mask-type:luminance" maskUnits="userSpaceOnUse" x="9" y="11" width="11" height="22">
<path d="M14.3817 19.0777C15.8863 19.0777 17.0961 18.0056 17.0961 16.697H11.6672C11.6672 18.0056 12.8771 19.0777 14.3817 19.0777ZM9.86793 16.3975C9.86793 14.001 11.8689 11.9199 14.3506 11.9199C16.8324 11.9199 18.8334 14.001 18.8334 16.3975C18.8334 18.3997 17.4374 20.2916 15.545 20.7962V27.3233H19.6244V28.6476H17.9182V30.3819H19.6244V31.7062H15.545C15.545 32.3368 15.0176 32.8571 14.3506 32.8571C13.6992 32.8571 13.1563 32.3368 13.1563 31.7062V20.8119C11.2484 20.2916 9.86793 18.3997 9.86793 16.3975Z" fill="white"/>
</mask>
<g mask="url(#mask1_4556_590)">
<path d="M134.95 -14.1727H-18.4244V53.7786H134.95V-14.1727Z" fill="white"/>
</g>
<path d="M35.725 24.312L35.6164 25.9832C35.2597 26.0147 34.9339 26.0305 34.6392 26.0305C33.4294 26.0305 32.5297 25.7467 31.9403 25.1791C31.3664 24.6115 31.0717 23.7602 31.0717 22.625V18.7939H29.412V17.1069H31.0717V14.474H33.2898V17.1069H35.5699V18.7939H33.2898V22.5935C33.2898 23.7759 33.8327 24.3593 34.9029 24.3593C35.1666 24.3593 35.4303 24.3435 35.725 24.312Z" fill="white"/>
<path d="M44.7215 17.107V25.9044H42.5654V24.5485C42.2862 25.0215 41.9295 25.3999 41.4641 25.6521C40.9988 25.9044 40.4869 26.0463 39.913 26.0463C37.788 26.0463 36.7332 24.8323 36.7332 22.4043V17.0912H38.9513V22.4201C38.9513 23.0507 39.0754 23.5079 39.3236 23.8075C39.5718 24.107 39.9596 24.2647 40.4869 24.2647C41.1074 24.2647 41.5882 24.0597 41.9605 23.6498C42.3328 23.2399 42.5189 22.6881 42.5189 22.0102V17.107H44.7215Z" fill="white"/>
<path d="M55.207 17.107V25.1003C55.207 26.4877 54.8348 27.5283 54.0902 28.2377C53.3457 28.9472 52.2289 29.294 50.7708 29.294C50.0108 29.294 49.2818 29.1994 48.5993 28.9945C47.9013 28.7895 47.2963 28.5215 46.769 28.1589L47.3894 26.5823C48.4597 27.2445 49.5765 27.5756 50.7243 27.5756C52.2599 27.5756 53.0199 26.803 53.0199 25.2737V24.1228C52.7563 24.6116 52.384 24.9899 51.8876 25.258C51.3913 25.526 50.8329 25.6679 50.1814 25.6679C49.4214 25.6679 48.7544 25.4787 48.165 25.1161C47.5755 24.7534 47.1257 24.2332 46.8 23.571C46.4742 22.9088 46.3036 22.1521 46.3036 21.2849C46.3036 20.4178 46.4587 19.661 46.7845 18.9831C47.1102 18.3209 47.56 17.8007 48.1494 17.438C48.7389 17.0754 49.4058 16.8862 50.1659 16.8862C50.8018 16.8862 51.3758 17.0281 51.8721 17.2961C52.3685 17.5642 52.7407 17.9426 53.0044 18.4313V17.107H55.207ZM52.415 23.2084C52.8028 22.7354 53.0044 22.1048 53.0044 21.2849C53.0044 20.4493 52.8028 19.8029 52.415 19.3457C52.0117 18.8727 51.4688 18.6363 50.7553 18.6363C50.0573 18.6363 49.5144 18.8727 49.1111 19.3457C48.7078 19.8187 48.5062 20.4651 48.5062 21.2849C48.5062 22.089 48.7078 22.7354 49.1111 23.2084C49.5144 23.6814 50.0573 23.9179 50.7553 23.9179C51.4688 23.9179 52.0117 23.6814 52.415 23.2084Z" fill="white"/>
<path d="M63.6606 17.7849C64.25 18.384 64.5447 19.3142 64.5447 20.5597V25.9043H62.4507V24.5485C62.2491 25.0214 61.9389 25.384 61.5045 25.6521C61.0702 25.9201 60.5739 26.0462 60.0155 26.0462C59.4416 26.0462 58.9142 25.9201 58.4333 25.6836C57.968 25.4471 57.5957 25.116 57.3165 24.6903C57.0373 24.2647 56.9132 23.8075 56.9132 23.2872C56.9132 22.6408 57.0684 22.1363 57.3941 21.7579C57.7198 21.3795 58.2472 21.1115 58.9762 20.9538C59.7053 20.7804 60.7135 20.7016 62.0009 20.7016H62.4507V20.2916C62.4507 19.6925 62.3266 19.2669 62.0629 18.9988C61.8148 18.7308 61.3805 18.6047 60.791 18.6047C60.3257 18.6047 59.8448 18.6835 59.3485 18.8412C58.8521 18.9988 58.3558 19.2353 57.8749 19.5191L57.2545 17.974C57.7353 17.6587 58.3248 17.4065 59.0072 17.2015C59.6897 16.9966 60.3412 16.902 60.9617 16.902C62.1715 16.8862 63.0712 17.1857 63.6606 17.7849ZM61.8923 23.8232C62.2646 23.4291 62.4507 22.9088 62.4507 22.2624V21.884H62.125C61.3339 21.884 60.7135 21.9155 60.2792 21.9944C59.8448 22.0732 59.5346 22.1993 59.333 22.3727C59.1468 22.5462 59.0538 22.7984 59.0538 23.1137C59.0538 23.4921 59.1779 23.8075 59.4416 24.0597C59.7053 24.312 60.031 24.4223 60.4343 24.4223C61.0392 24.4381 61.5201 24.2331 61.8923 23.8232Z" fill="white"/>
<path d="M72.2538 18.7624L70.9663 18.8885C69.5083 19.0462 68.7638 19.803 68.7638 21.1588V25.9044H66.5457V17.107H68.6552V18.652C69.105 17.5957 70.0357 17.0124 71.4317 16.9178L72.0987 16.8705L72.2538 18.7624Z" fill="white"/>
<path d="M79.482 17.7849C80.0714 18.384 80.3661 19.3142 80.3661 20.5597V25.9043H78.2566V24.5485C78.0549 25.0214 77.7447 25.384 77.3104 25.6521C76.8761 25.9201 76.3797 26.0462 75.8213 26.0462C75.2474 26.0462 74.72 25.9201 74.2392 25.6836C73.7739 25.4471 73.4016 25.116 73.1224 24.6903C72.8432 24.2647 72.7191 23.8075 72.7191 23.2872C72.7191 22.6408 72.8742 22.1363 73.2 21.7579C73.5257 21.3795 74.0531 21.1115 74.7821 20.9538C75.5111 20.7804 76.5193 20.7016 77.8068 20.7016H78.2566V20.2916C78.2566 19.6925 78.1325 19.2669 77.8688 18.9988C77.6206 18.7308 77.1863 18.6047 76.5969 18.6047C76.1316 18.6047 75.6507 18.6835 75.1544 18.8412C74.658 18.9988 74.1617 19.2353 73.6808 19.5191L73.0604 17.974C73.5412 17.6587 74.1306 17.4065 74.8131 17.2015C75.4956 16.9966 76.1471 16.902 76.7675 16.902C77.9929 16.8862 78.8925 17.1857 79.482 17.7849ZM77.6982 23.8232C78.0705 23.4291 78.2566 22.9088 78.2566 22.2624V21.884H77.9309C77.1398 21.884 76.5193 21.9155 76.085 21.9944C75.6507 22.0732 75.3405 22.1993 75.1388 22.3727C74.9527 22.5462 74.8596 22.7984 74.8596 23.1137C74.8596 23.4921 74.9837 23.8075 75.2474 24.0597C75.5111 24.312 75.8369 24.4223 76.2401 24.4223C76.8451 24.4381 77.3259 24.2331 77.6982 23.8232Z" fill="white"/>
<path d="M89.7193 17.7849C90.2312 18.384 90.4794 19.2984 90.4794 20.4967V25.9044H88.2613V20.6228C88.2613 19.9448 88.1372 19.4403 87.8735 19.125C87.6253 18.8097 87.222 18.652 86.6791 18.652C86.0432 18.652 85.5313 18.857 85.1435 19.2669C84.7558 19.6768 84.5696 20.2286 84.5696 20.9066V25.8886H82.3515V17.0912H84.5076V18.3998C84.8023 17.911 85.2056 17.5327 85.6864 17.2646C86.1828 16.9966 86.7412 16.8705 87.3616 16.8705C88.4319 16.8862 89.2075 17.1858 89.7193 17.7849Z" fill="white"/>
<path d="M97.7231 24.312L97.6145 25.9832C97.2577 26.0147 96.932 26.0305 96.6373 26.0305C95.4274 26.0305 94.5278 25.7467 93.9384 25.1791C93.3645 24.6115 93.0697 23.7602 93.0697 22.625V18.7939H91.41V17.1069H93.0697V14.474H95.2878V17.1069H97.568V18.7939H95.2878V22.5935C95.2878 23.7759 95.8307 24.3593 96.901 24.3593C97.1647 24.3593 97.4284 24.3435 97.7231 24.312Z" fill="white"/>
<path d="M98.6382 13.0236H101.089V15.2308H98.6382V13.0236ZM98.7623 25.9044V17.1069H100.98V25.9044H98.7623Z" fill="white"/>
<path d="M109.341 17.7849C109.93 18.384 110.225 19.3142 110.225 20.5597V25.9043H108.116V24.5485C107.914 25.0214 107.604 25.384 107.169 25.6521C106.735 25.9201 106.239 26.0462 105.68 26.0462C105.106 26.0462 104.579 25.9201 104.098 25.6836C103.633 25.4471 103.261 25.116 102.981 24.6903C102.702 24.2647 102.578 23.8075 102.578 23.2872C102.578 22.6408 102.733 22.1363 103.059 21.7579C103.385 21.3795 103.912 21.1115 104.641 20.9538C105.37 20.7804 106.378 20.7016 107.666 20.7016H108.116V20.2916C108.116 19.6925 107.991 19.2669 107.728 18.9988C107.48 18.7308 107.045 18.6047 106.456 18.6047C105.991 18.6047 105.51 18.6835 105.013 18.8412C104.517 18.9988 104.021 19.2353 103.54 19.5191L102.919 17.974C103.4 17.6587 103.99 17.4065 104.672 17.2015C105.355 16.9966 106.006 16.902 106.626 16.902C107.852 16.8862 108.752 17.1857 109.341 17.7849ZM107.573 23.8232C107.945 23.4291 108.131 22.9088 108.131 22.2624V21.884H107.805C107.014 21.884 106.394 21.9155 105.96 21.9944C105.525 22.0732 105.215 22.1993 105.013 22.3727C104.827 22.5462 104.734 22.7984 104.734 23.1137C104.734 23.4921 104.858 23.8075 105.122 24.0597C105.386 24.312 105.711 24.4223 106.115 24.4223C106.72 24.4381 107.2 24.2331 107.573 23.8232Z" fill="white"/>
</svg>
